<mxfile host="app.diagrams.net" agent="Mozilla/5.0 (Windows NT 10.0; Win64; x64) AppleWebKit/537.36 (KHTML, like Gecko) Chrome/138.0.0.0 Safari/537.36" version="28.0.7">
  <diagram name="Page-1" id="e1Pw8eOxJVvCi1lECZEn">
    <mxGraphModel dx="1603" dy="811" grid="1" gridSize="10" guides="1" tooltips="1" connect="0" arrows="0" fold="1" page="1" pageScale="1" pageWidth="850" pageHeight="1100" background="#FFFFFF" math="0" shadow="0">
      <root>
        <mxCell id="0" />
        <mxCell id="1" parent="0" />
        <mxCell id="32sIdwfOgQegabNfZ7oi-1" value="&lt;font style=&quot;font-size: 21px; color: rgb(247, 247, 247);&quot;&gt;&lt;b style=&quot;&quot;&gt;student Information system&lt;/b&gt;&lt;/font&gt;" style="whiteSpace=wrap;html=1;fillColor=#FF6C4F;strokeColor=#FF6041;" vertex="1" parent="1">
          <mxGeometry x="210" y="60" width="410" height="50" as="geometry" />
        </mxCell>
        <mxCell id="32sIdwfOgQegabNfZ7oi-4" value="&lt;font style=&quot;color: rgb(255, 255, 255); font-size: 16px;&quot;&gt;Admin&lt;/font&gt;" style="whiteSpace=wrap;html=1;fillColor=#FB7550;strokeColor=#d79b00;direction=west;" vertex="1" parent="1">
          <mxGeometry x="70" y="190" width="120" height="40" as="geometry" />
        </mxCell>
        <mxCell id="32sIdwfOgQegabNfZ7oi-6" value="" style="endArrow=classic;html=1;rounded=0;exitX=-0.02;exitY=0.44;exitDx=0;exitDy=0;exitPerimeter=0;" edge="1" parent="1" source="32sIdwfOgQegabNfZ7oi-4">
          <mxGeometry width="50" height="50" relative="1" as="geometry">
            <mxPoint x="400" y="240" as="sourcePoint" />
            <mxPoint x="280" y="212" as="targetPoint" />
          </mxGeometry>
        </mxCell>
        <mxCell id="32sIdwfOgQegabNfZ7oi-8" value="&lt;font style=&quot;color: rgb(253, 253, 253); font-size: 15px;&quot;&gt;login to system&lt;/font&gt;" style="ellipse;whiteSpace=wrap;html=1;fillColor=#FB7550;strokeColor=#F9F9F9;" vertex="1" parent="1">
          <mxGeometry x="280" y="170" width="80" height="80" as="geometry" />
        </mxCell>
        <mxCell id="32sIdwfOgQegabNfZ7oi-10" value="" style="endArrow=classic;html=1;rounded=0;" edge="1" parent="1">
          <mxGeometry width="50" height="50" relative="1" as="geometry">
            <mxPoint x="120" y="230" as="sourcePoint" />
            <mxPoint x="120" y="310" as="targetPoint" />
          </mxGeometry>
        </mxCell>
        <mxCell id="32sIdwfOgQegabNfZ7oi-11" value="&lt;font style=&quot;color: rgb(249, 249, 249); font-size: 14px;&quot;&gt;Forgot&lt;/font&gt;&lt;div&gt;&lt;font style=&quot;color: rgb(249, 249, 249); font-size: 14px;&quot;&gt;password&lt;/font&gt;&lt;/div&gt;" style="ellipse;whiteSpace=wrap;html=1;strokeColor=#F9F9F9;fillColor=#FB7550;" vertex="1" parent="1">
          <mxGeometry x="80" y="310" width="80" height="80" as="geometry" />
        </mxCell>
        <mxCell id="32sIdwfOgQegabNfZ7oi-12" value="" style="endArrow=classic;html=1;rounded=0;" edge="1" parent="1">
          <mxGeometry width="50" height="50" relative="1" as="geometry">
            <mxPoint x="119.5" y="390" as="sourcePoint" />
            <mxPoint x="120" y="480" as="targetPoint" />
            <Array as="points">
              <mxPoint x="120" y="440" />
            </Array>
          </mxGeometry>
        </mxCell>
        <mxCell id="32sIdwfOgQegabNfZ7oi-13" value="&lt;font style=&quot;color: rgb(251, 251, 251); font-size: 13px;&quot;&gt;Send Email&lt;/font&gt;&lt;div&gt;&lt;font style=&quot;color: rgb(251, 251, 251); font-size: 13px;&quot;&gt;to user&lt;/font&gt;&lt;/div&gt;" style="ellipse;whiteSpace=wrap;html=1;strokeColor=#FFFFFF;fillColor=#FB7550;" vertex="1" parent="1">
          <mxGeometry x="80" y="480" width="80" height="80" as="geometry" />
        </mxCell>
        <mxCell id="32sIdwfOgQegabNfZ7oi-16" value="" style="endArrow=classic;html=1;rounded=0;exitX=0.535;exitY=0.99;exitDx=0;exitDy=0;exitPerimeter=0;" edge="1" parent="1" source="32sIdwfOgQegabNfZ7oi-8">
          <mxGeometry width="50" height="50" relative="1" as="geometry">
            <mxPoint x="320" y="260" as="sourcePoint" />
            <mxPoint x="323" y="300" as="targetPoint" />
            <Array as="points" />
          </mxGeometry>
        </mxCell>
        <mxCell id="32sIdwfOgQegabNfZ7oi-17" value="&lt;font style=&quot;font-size: 16px; color: rgb(251, 251, 251);&quot;&gt;Check&amp;nbsp;&lt;/font&gt;&lt;div&gt;&lt;font style=&quot;font-size: 16px; color: rgb(251, 251, 251);&quot;&gt;credentials&lt;/font&gt;&lt;/div&gt;" style="ellipse;whiteSpace=wrap;html=1;fillColor=#FB7550;strokeColor=#FBFBFB;" vertex="1" parent="1">
          <mxGeometry x="270" y="300" width="110" height="100" as="geometry" />
        </mxCell>
        <mxCell id="32sIdwfOgQegabNfZ7oi-19" value="" style="endArrow=classic;html=1;rounded=0;exitX=0.989;exitY=0.332;exitDx=0;exitDy=0;exitPerimeter=0;" edge="1" parent="1" source="32sIdwfOgQegabNfZ7oi-17">
          <mxGeometry width="50" height="50" relative="1" as="geometry">
            <mxPoint x="400" y="340" as="sourcePoint" />
            <mxPoint x="460" y="220" as="targetPoint" />
          </mxGeometry>
        </mxCell>
        <mxCell id="32sIdwfOgQegabNfZ7oi-20" value="&lt;font style=&quot;color: rgb(255, 255, 255); font-size: 13px;&quot;&gt;Check Roles&lt;/font&gt;&lt;div&gt;&lt;font style=&quot;color: rgb(255, 255, 255); font-size: 13px;&quot;&gt;of Access&lt;/font&gt;&lt;/div&gt;" style="ellipse;whiteSpace=wrap;html=1;fillColor=#FB7550;strokeColor=#FBFBFB;" vertex="1" parent="1">
          <mxGeometry x="460" y="170" width="80" height="80" as="geometry" />
        </mxCell>
        <mxCell id="32sIdwfOgQegabNfZ7oi-22" value="" style="endArrow=classic;html=1;rounded=0;" edge="1" parent="1" source="32sIdwfOgQegabNfZ7oi-20">
          <mxGeometry width="50" height="50" relative="1" as="geometry">
            <mxPoint x="400" y="340" as="sourcePoint" />
            <mxPoint x="500" y="300" as="targetPoint" />
          </mxGeometry>
        </mxCell>
        <mxCell id="32sIdwfOgQegabNfZ7oi-23" value="&lt;font style=&quot;color: rgb(255, 255, 255); font-size: 14px;&quot;&gt;Manage&lt;/font&gt;&lt;div&gt;&lt;font style=&quot;color: rgb(255, 255, 255); font-size: 14px;&quot;&gt;Modules&lt;/font&gt;&lt;/div&gt;" style="ellipse;whiteSpace=wrap;html=1;fillColor=#FB7550;strokeColor=#FFFFFF;" vertex="1" parent="1">
          <mxGeometry x="460" y="300" width="80" height="80" as="geometry" />
        </mxCell>
        <mxCell id="32sIdwfOgQegabNfZ7oi-24" value="" style="endArrow=classic;html=1;rounded=0;exitX=0.375;exitY=1;exitDx=0;exitDy=0;exitPerimeter=0;" edge="1" parent="1">
          <mxGeometry width="50" height="50" relative="1" as="geometry">
            <mxPoint x="470" y="370" as="sourcePoint" />
            <mxPoint x="140" y="600" as="targetPoint" />
          </mxGeometry>
        </mxCell>
        <mxCell id="32sIdwfOgQegabNfZ7oi-25" value="&lt;font style=&quot;font-size: 14px; color: rgb(255, 255, 255);&quot;&gt;Manage system&lt;/font&gt;&lt;div&gt;&lt;font style=&quot;font-size: 14px; color: rgb(255, 255, 255);&quot;&gt;Admins&lt;/font&gt;&lt;/div&gt;" style="whiteSpace=wrap;html=1;fillColor=#FB7550;strokeColor=#FFFFFF;" vertex="1" parent="1">
          <mxGeometry x="50" y="600" width="150" height="50" as="geometry" />
        </mxCell>
        <mxCell id="32sIdwfOgQegabNfZ7oi-26" value="" style="endArrow=classic;html=1;rounded=0;exitX=0.215;exitY=0.945;exitDx=0;exitDy=0;exitPerimeter=0;" edge="1" parent="1" source="32sIdwfOgQegabNfZ7oi-23">
          <mxGeometry width="50" height="50" relative="1" as="geometry">
            <mxPoint x="380" y="590" as="sourcePoint" />
            <mxPoint x="330" y="600" as="targetPoint" />
          </mxGeometry>
        </mxCell>
        <mxCell id="32sIdwfOgQegabNfZ7oi-27" value="&lt;font style=&quot;font-size: 14px; color: rgb(255, 255, 255);&quot;&gt;Manage Roles of user&lt;/font&gt;" style="whiteSpace=wrap;html=1;fillColor=#FB7550;strokeColor=#FFFFFF;" vertex="1" parent="1">
          <mxGeometry x="230" y="600" width="170" height="50" as="geometry" />
        </mxCell>
        <mxCell id="32sIdwfOgQegabNfZ7oi-28" value="" style="endArrow=classic;html=1;rounded=0;" edge="1" parent="1" source="32sIdwfOgQegabNfZ7oi-23">
          <mxGeometry width="50" height="50" relative="1" as="geometry">
            <mxPoint x="500" y="390" as="sourcePoint" />
            <mxPoint x="496" y="596" as="targetPoint" />
          </mxGeometry>
        </mxCell>
        <mxCell id="32sIdwfOgQegabNfZ7oi-29" value="&lt;div&gt;&lt;font style=&quot;font-size: 14px; color: rgb(255, 255, 255);&quot;&gt;&lt;br&gt;&lt;/font&gt;&lt;/div&gt;&lt;font style=&quot;font-size: 14px; color: rgb(255, 255, 255);&quot;&gt;Manage User&lt;/font&gt;&lt;div&gt;&lt;font style=&quot;font-size: 14px; color: rgb(255, 255, 255);&quot;&gt;Permission&lt;/font&gt;&lt;br&gt;&lt;div&gt;&lt;br&gt;&lt;/div&gt;&lt;/div&gt;" style="whiteSpace=wrap;html=1;fillColor=#FB7550;strokeColor=#FFFFFF;" vertex="1" parent="1">
          <mxGeometry x="420" y="600" width="145" height="50" as="geometry" />
        </mxCell>
        <mxCell id="32sIdwfOgQegabNfZ7oi-32" value="" style="endArrow=classic;html=1;rounded=0;" edge="1" parent="1">
          <mxGeometry width="50" height="50" relative="1" as="geometry">
            <mxPoint x="530" y="310" as="sourcePoint" />
            <mxPoint x="630" y="200" as="targetPoint" />
            <Array as="points" />
          </mxGeometry>
        </mxCell>
        <mxCell id="32sIdwfOgQegabNfZ7oi-34" value="&lt;font style=&quot;font-size: 15px; color: rgb(255, 255, 255);&quot;&gt;Manage Timetable&amp;nbsp;&lt;/font&gt;&lt;div&gt;&lt;font style=&quot;font-size: 15px; color: rgb(255, 255, 255);&quot;&gt;Details&lt;/font&gt;&lt;/div&gt;" style="whiteSpace=wrap;html=1;fillColor=#FB7550;strokeColor=#FFFFFF;" vertex="1" parent="1">
          <mxGeometry x="630" y="170" width="180" height="50" as="geometry" />
        </mxCell>
        <mxCell id="32sIdwfOgQegabNfZ7oi-35" value="" style="endArrow=classic;html=1;rounded=0;" edge="1" parent="1">
          <mxGeometry width="50" height="50" relative="1" as="geometry">
            <mxPoint x="540" y="330" as="sourcePoint" />
            <mxPoint x="630" y="260" as="targetPoint" />
          </mxGeometry>
        </mxCell>
        <mxCell id="32sIdwfOgQegabNfZ7oi-37" value="&lt;font style=&quot;font-size: 15px; color: rgb(255, 255, 255);&quot;&gt;Manage Attendence&lt;/font&gt;&lt;div&gt;&lt;font style=&quot;font-size: 15px; color: rgb(255, 255, 255);&quot;&gt;Details&lt;/font&gt;&lt;/div&gt;" style="whiteSpace=wrap;html=1;fillColor=#FB7550;strokeColor=#FFFFFF;" vertex="1" parent="1">
          <mxGeometry x="630" y="230" width="180" height="50" as="geometry" />
        </mxCell>
        <mxCell id="32sIdwfOgQegabNfZ7oi-40" value="" style="endArrow=classic;html=1;rounded=0;entryX=-0.022;entryY=0.8;entryDx=0;entryDy=0;entryPerimeter=0;" edge="1" parent="1" target="32sIdwfOgQegabNfZ7oi-41">
          <mxGeometry width="50" height="50" relative="1" as="geometry">
            <mxPoint x="540" y="339" as="sourcePoint" />
            <mxPoint x="630" y="339.5" as="targetPoint" />
          </mxGeometry>
        </mxCell>
        <mxCell id="32sIdwfOgQegabNfZ7oi-41" value="&lt;font style=&quot;font-size: 16px; color: rgb(255, 255, 255);&quot;&gt;Manage Class&amp;nbsp;&lt;/font&gt;&lt;div&gt;&lt;font style=&quot;font-size: 16px; color: rgb(255, 255, 255);&quot;&gt;Details&lt;/font&gt;&lt;/div&gt;" style="whiteSpace=wrap;html=1;fillColor=#FB7550;strokeColor=#FFFFFF;" vertex="1" parent="1">
          <mxGeometry x="630" y="290" width="180" height="50" as="geometry" />
        </mxCell>
        <mxCell id="32sIdwfOgQegabNfZ7oi-42" value="" style="endArrow=classic;html=1;rounded=0;exitX=0.935;exitY=0.735;exitDx=0;exitDy=0;exitPerimeter=0;entryX=-0.004;entryY=0.656;entryDx=0;entryDy=0;entryPerimeter=0;" edge="1" parent="1" source="32sIdwfOgQegabNfZ7oi-23" target="32sIdwfOgQegabNfZ7oi-43">
          <mxGeometry width="50" height="50" relative="1" as="geometry">
            <mxPoint x="540" y="390" as="sourcePoint" />
            <mxPoint x="620" y="380" as="targetPoint" />
          </mxGeometry>
        </mxCell>
        <mxCell id="32sIdwfOgQegabNfZ7oi-43" value="&lt;font style=&quot;font-size: 15px; color: rgb(255, 255, 255);&quot;&gt;Manage student Detail&lt;/font&gt;" style="whiteSpace=wrap;html=1;fillColor=#FB7550;strokeColor=#FFFFFF;" vertex="1" parent="1">
          <mxGeometry x="630" y="350" width="180" height="50" as="geometry" />
        </mxCell>
        <mxCell id="32sIdwfOgQegabNfZ7oi-44" value="" style="endArrow=classic;html=1;rounded=0;exitX=0.825;exitY=0.885;exitDx=0;exitDy=0;exitPerimeter=0;" edge="1" parent="1" source="32sIdwfOgQegabNfZ7oi-23">
          <mxGeometry width="50" height="50" relative="1" as="geometry">
            <mxPoint x="530" y="380" as="sourcePoint" />
            <mxPoint x="630" y="430" as="targetPoint" />
          </mxGeometry>
        </mxCell>
        <mxCell id="32sIdwfOgQegabNfZ7oi-45" value="&lt;font style=&quot;font-size: 16px; color: rgb(255, 255, 255);&quot;&gt;Manage Fees Details&lt;/font&gt;" style="whiteSpace=wrap;html=1;fillColor=#FB7550;strokeColor=#FFFFFF;" vertex="1" parent="1">
          <mxGeometry x="630" y="410" width="180" height="50" as="geometry" />
        </mxCell>
        <mxCell id="32sIdwfOgQegabNfZ7oi-46" value="" style="endArrow=classic;html=1;rounded=0;exitX=0.75;exitY=1;exitDx=0;exitDy=0;exitPerimeter=0;" edge="1" parent="1" source="32sIdwfOgQegabNfZ7oi-23">
          <mxGeometry width="50" height="50" relative="1" as="geometry">
            <mxPoint x="510" y="390" as="sourcePoint" />
            <mxPoint x="630" y="490" as="targetPoint" />
          </mxGeometry>
        </mxCell>
        <mxCell id="32sIdwfOgQegabNfZ7oi-47" value="&lt;font style=&quot;font-size: 15px; color: rgb(255, 255, 255);&quot;&gt;Manage Teacher&lt;/font&gt;&lt;div&gt;&lt;font style=&quot;font-size: 15px; color: rgb(255, 255, 255);&quot;&gt;Profiles&lt;/font&gt;&lt;/div&gt;" style="whiteSpace=wrap;html=1;fillColor=#FB7550;strokeColor=#FFFFFF;" vertex="1" parent="1">
          <mxGeometry x="630" y="470" width="180" height="50" as="geometry" />
        </mxCell>
        <mxCell id="32sIdwfOgQegabNfZ7oi-48" value="" style="endArrow=classic;html=1;rounded=0;exitX=0.615;exitY=1.025;exitDx=0;exitDy=0;exitPerimeter=0;entryX=-0.013;entryY=0.328;entryDx=0;entryDy=0;entryPerimeter=0;" edge="1" parent="1" source="32sIdwfOgQegabNfZ7oi-23" target="32sIdwfOgQegabNfZ7oi-49">
          <mxGeometry width="50" height="50" relative="1" as="geometry">
            <mxPoint x="540" y="470" as="sourcePoint" />
            <mxPoint x="620" y="550" as="targetPoint" />
          </mxGeometry>
        </mxCell>
        <mxCell id="32sIdwfOgQegabNfZ7oi-49" value="&lt;font style=&quot;font-size: 18px; color: rgb(255, 255, 255);&quot;&gt;Manage Report&lt;/font&gt;" style="whiteSpace=wrap;html=1;fillColor=#FB7550;strokeColor=#FFFFFF;" vertex="1" parent="1">
          <mxGeometry x="630" y="540" width="180" height="50" as="geometry" />
        </mxCell>
      </root>
    </mxGraphModel>
  </diagram>
</mxfile>
